<svg width="64" height="69" viewBox="0 0 64 69" fill="none" xmlns="http://www.w3.org/2000/svg">
<path fill-rule="evenodd" clip-rule="evenodd" d="M31.75 0.676854L37.9453 6.84903C39.8322 8.72886 40.8925 11.1209 41.1262 13.5765L42.9121 11.7973L60.2696 29.0898C64.5768 33.381 64.5768 40.3414 60.2696 44.6326L39.5399 65.2847C35.2368 69.5718 28.2632 69.5718 23.9601 65.2847L3.23044 44.6326C-1.07681 40.3414 -1.07681 33.381 3.23044 29.0898L31.75 0.676854ZM33.5359 26.7847L23.4216 36.8612L31.75 45.1584L40.0784 36.8612L36.7168 33.5122C34.8299 31.6323 33.7696 29.2402 33.5359 26.7847ZM42.9121 39.6843L34.5837 47.9816L42.9121 56.2788L51.2405 47.9816L42.9121 39.6843ZM54.0742 45.1584L45.7459 36.8612L54.0742 28.5639L57.4464 31.9235C60.1845 34.6514 60.1845 39.071 57.4464 41.7989L54.0742 45.1584ZM51.2405 25.7408L42.9121 34.038L39.5399 30.6785C36.8018 27.9506 36.8018 23.531 39.5399 20.8031L42.9121 17.4435L51.2405 25.7408ZM40.0784 59.102L20.5879 39.6843L12.2595 47.9816L26.7832 62.451C29.5254 65.183 33.9746 65.183 36.7168 62.451L40.0784 59.102ZM9.42577 45.1584L17.7541 36.8612L9.42577 28.5639L6.05356 31.9235C3.31548 34.6514 3.31548 39.071 6.05356 41.7989L9.42577 45.1584ZM12.2595 25.7408L20.5879 34.038L35.1222 19.5581C37.8603 16.8302 37.8603 12.4106 35.1222 9.68274L31.75 6.32315L12.2595 25.7408Z" fill="white"/>
</svg>
